# xmcd
#
# Track frame offsets: 
#        150
#        22404
#        40772
#        58620
#        77325
#        105127
#        124085
#        146176
#        164389
#        185931
#        206984
#
# Disc length: 3129 seconds
#
# Revision: 2
# Processed by: cddbd v1.5.2PL0 Copyright (c) Steve Scherf et al.
# Submitted via: ExactAudioCopyFreeDBPlugin 1.0
#
DISCID=9d0c370b
DTITLE=Too Slim and The Taildraggers - Free Your Mind
DYEAR=2009
DGENRE=Blues
TTITLE0=When You Love Somebody
TTITLE1=Last Train
TTITLE2=Devil In A Doublewide
TTITLE3=Free Your Mind
TTITLE4=Testament
TTITLE5=Been Through Hell
TTITLE6=Peace With The Maker
TTITLE7=Bottle It Up
TTITLE8=Throw Me A Rope
TTITLE9=This Phone
TTITLE10=The Light [w Lauren Evans]
EXTD=
EXTT0=
EXTT1=
EXTT2=
EXTT3=
EXTT4=
EXTT5=
EXTT6=
EXTT7=
EXTT8=
EXTT9=
EXTT10=
PLAYORDER=
